<svg xmlns="http://www.w3.org/2000/svg" viewBox="0 0 400 200" fill="none">
  <rect width="400" height="200" fill="#1e293b" rx="12"/>
  <!-- Car Body -->
  <path d="M45 145 L75 85 L150 72 L280 72 L315 85 L355 145 L355 158 L45 158 Z" fill="#0f172a" stroke="#334155" stroke-width="2"/>
  <!-- Chrome Trim -->
  <path d="M50 140 L78 88 L278 88 L350 140" stroke="#94a3b8" stroke-width="2" fill="none"/>
  <!-- Windows -->
  <path d="M80 98 L145 85 L255 85 L310 98 L295 128 L95 128 Z" fill="#93c5fd" stroke="#3b82f6" stroke-width="1.5"/>
  <!-- Wheel Wells -->
  <circle cx="100" cy="158" r="30" fill="#0f172a" stroke="#334155" stroke-width="2"/>
  <circle cx="300" cy="158" r="30" fill="#0f172a" stroke="#334155" stroke-width="2"/>
  <!-- Premium Wheels -->
  <circle cx="100" cy="158" r="24" fill="#475569"/>
  <circle cx="100" cy="158" r="18" fill="#94a3b8"/>
  <circle cx="100" cy="158" r="10" fill="#0f172a"/>
  <!-- Spokes -->
  <line x1="100" y1="140" x2="100" y2="148" stroke="#1e293b" stroke-width="3"/>
  <line x1="100" y1="168" x2="100" y2="176" stroke="#1e293b" stroke-width="3"/>
  <line x1="82" y1="158" x2="90" y2="158" stroke="#1e293b" stroke-width="3"/>
  <line x1="110" y1="158" x2="118" y2="158" stroke="#1e293b" stroke-width="3"/>
  <circle cx="300" cy="158" r="24" fill="#475569"/>
  <circle cx="300" cy="158" r="18" fill="#94a3b8"/>
  <circle cx="300" cy="158" r="10" fill="#0f172a"/>
  <!-- Spokes -->
  <line x1="300" y1="140" x2="300" y2="148" stroke="#1e293b" stroke-width="3"/>
  <line x1="300" y1="168" x2="300" y2="176" stroke="#1e293b" stroke-width="3"/>
  <line x1="282" y1="158" x2="290" y2="158" stroke="#1e293b" stroke-width="3"/>
  <line x1="310" y1="158" x2="318" y2="158" stroke="#1e293b" stroke-width="3"/>
  <!-- LED Headlight -->
  <path d="M340 118 L352 125 L340 132 Z" fill="#60a5fa" stroke="#3b82f6" stroke-width="1"/>
  <!-- LED Taillight -->
  <path d="M60 118 L48 125 L60 132 Z" fill="#f87171" stroke="#ef4444" stroke-width="1"/>
  <!-- Door Line -->
  <line x1="200" y1="78" x2="200" y2="150" stroke="#334155" stroke-width="2"/>
  <!-- Chrome Door Handle -->
  <rect x="165" y="112" width="18" height="3" rx="1" fill="#94a3b8"/>
  <rect x="217" y="112" width="18" height="3" rx="1" fill="#94a3b8"/>
  <!-- Luxury Grille -->
  <rect x="325" y="135" width="22" height="15" rx="3" fill="#0f172a" stroke="#94a3b8" stroke-width="1.5"/>
  <line x1="328" y1="138" x2="344" y2="138" stroke="#94a3b8" stroke-width="1"/>
  <line x1="328" y1="142" x2="344" y2="142" stroke="#94a3b8" stroke-width="1"/>
  <line x1="328" y1="146" x2="344" y2="146" stroke="#94a3b8" stroke-width="1"/>
</svg>
